<?xml version="1.0" encoding="UTF-8"?> <svg xmlns="http://www.w3.org/2000/svg" xmlns:xlink="http://www.w3.org/1999/xlink" xmlns:svgjs="http://svgjs.com/svgjs" width="1000" height="1000"> <rect width="1000" height="1000" rx="500" ry="500" fill="#ffffff"></rect> <g transform="matrix(25,0,0,25,104.99224472045898,107.07762145996094)"> <svg xmlns="http://www.w3.org/2000/svg" xmlns:xlink="http://www.w3.org/1999/xlink" xmlns:svgjs="http://svgjs.com/svgjs" width="32" height="32"> <svg xmlns="http://www.w3.org/2000/svg" width="32" height="32" viewBox="0 0 32 32" fill="none"> <g clip-path="url(#clip0_665_44)"> <circle cx="15.5" cy="3.5" r="2.5" fill="#2C2B29"></circle> <path d="M16.0176 12.7324C14.8145 12.7324 13.8438 13.1016 13.1055 13.8398C12.3672 14.5781 11.9297 15.6582 11.793 17.0801C11.793 17.3262 11.8887 17.4492 12.0801 17.4492H19.873C20.0918 17.4492 20.2012 17.3262 20.2012 17.0801C20.0918 14.1816 18.6973 12.7324 16.0176 12.7324ZM16.5508 30.4102C13.1602 30.4102 10.4258 29.4121 8.34766 27.416C6.29688 25.4199 5.27148 22.7266 5.27148 19.3359C5.27148 15.918 6.22852 13.2246 8.14258 11.2559C10.0566 9.25977 12.627 8.26172 15.8535 8.26172C19.1348 8.26172 21.6914 9.20508 23.5234 11.0918C25.3555 12.9785 26.2852 15.6719 26.3125 19.1719C26.3125 19.8281 26.0664 20.3887 25.5742 20.8535C25.1094 21.291 24.5352 21.5098 23.8516 21.5098H12.1621C11.916 21.5098 11.8203 21.6328 11.875 21.8789C12.1211 23.1094 12.709 24.0664 13.6387 24.75C14.5684 25.4336 15.7441 25.7754 17.166 25.7754C18.5605 25.7754 19.832 25.584 20.9805 25.2012C21.582 25.0098 22.1562 25.0508 22.7031 25.3242C23.2773 25.5703 23.6602 25.9805 23.8516 26.5547C24.0703 27.1836 24.0293 27.7988 23.7285 28.4004C23.4551 29.002 23.0176 29.3984 22.416 29.5898C20.6934 30.1367 18.7383 30.4102 16.5508 30.4102Z" fill="#2C2B29"></path> </g> <defs> <clipPath id="clip0_665_44"> <rect width="32" height="32" fill="white"></rect> </clipPath> </defs> </svg> </svg> </g> </svg> 